<?xml version="1.0" encoding="UTF-8"?>
<!-- Adjusted layout: symmetric vertical margins and increased horizontal padding -->
<svg xmlns="http://www.w3.org/2000/svg" viewBox="0 0 1500 800" width="1500" height="800">
  <style>
    #text-human {
      fill: #0b2b6a;
    }
    .disc-border {
      stroke: #f5f2f2;
    }

    @media (prefers-color-scheme: dark) {
      #text-human {
        fill: #2bb7f0;
      }
      .disc-border {
        stroke: #555555;
      }
    }
  </style>

  <rect width="1500" height="800" fill="white" />

  <defs>
    <clipPath id="discClip">
      <!-- Center the disc vertically within 800 height: circle center at 400 -->
      <circle cx="420" cy="400" r="300" />
    </clipPath>
  </defs>

  <g clip-path="url(#discClip)">
    <rect x="120" y="100" width="600" height="60" fill="#0b1a4a" />
    <rect x="120" y="160" width="600" height="60" fill="#0a2b7a" />
    <rect x="120" y="220" width="600" height="60" fill="#0b3aa0" />
    <rect x="120" y="280" width="600" height="60" fill="#0b57b8" />
    <rect x="120" y="340" width="600" height="60" fill="#0e77cf" />
    <rect x="120" y="400" width="600" height="60" fill="#1293e0" />
    <rect x="120" y="460" width="600" height="60" fill="#1ea6e7" />
    <rect x="120" y="520" width="600" height="60" fill="#2bb7f0" />
    <rect x="120" y="580" width="600" height="60" fill="#3bcdf4" />
    <rect x="120" y="640" width="600" height="60" fill="#54ddff" />
  </g>

  <circle cx="420" cy="400" r="300" fill="none" stroke-width="1" class="disc-border" />

  <path
    d="m 850.8,444.1 v -135 h 16.38 v 62.1 l -5.76,-0.36 q 6.21,-7.83 13.32,-12.24 7.2,-4.5 18.36,-4.5 11.43,0 19.08,5.13 7.65,5.13 11.43,14.31 3.87,9.18 3.87,21.42 v 49.14 h -16.2 v -47.16 q 0,-14.58 -5.4,-21.51 -5.31,-6.93 -16.38,-6.93 -8.37,0 -14.85,4.5 -6.39,4.5 -10.17,12.06 l 2.7,-9.9 v 68.94 z m 133.41997,1.8 q -10.35,0 -17.64,-4.14 -7.29,-4.23 -11.16,-12.78 -3.78,-8.55 -3.78,-21.78 v -51.3 h 16.2 v 46.8 q 0,14.04 4.77,21.42 4.86,7.38 15.75,7.38 7.47,0 13.86003,-3.6 6.39,-3.6 8.82,-11.52 l -2.34,8.82 v -69.3 h 16.2 v 88.2 h -14.4 l -3.24,-17.28 4.32,2.88 q -4.41,8.19 -10.8,12.24 -6.30003,3.96 -16.56003,3.96 z m 66.64003,-1.8 v -88.2 h 12.6 l 3.24,16.92 -6.12,-2.88 q 8.28,-8.91 16.11,-12.33 7.83,-3.51 16.47,-3.51 6.48,0 12.42,2.16 6.03,2.07 10.8,7.38 4.86,5.22 7.74,14.58 l -4.5,-1.98 q 3.96,-10.26 12.15,-16.2 8.19,-5.94 22.05,-5.94 11.07,0 18.63,4.14 7.56,4.05 11.34,12.51 3.87,8.37 3.87,21.33 v 52.02 h -16.2 v -51.84 q 0,-12.42 -4.86,-18.09 -4.86,-5.67 -15.84,-5.67 -7.74,0 -12.42,2.43 -4.68,2.34 -7.11,6.12 -2.34,3.78 -3.15,8.01 -0.72,4.23 -0.72,7.92 v 51.12 h -16.2 v -48.6 q 0,-10.8 -2.61,-16.65 -2.61,-5.85 -7.29,-8.1 -4.68,-2.25 -10.8,-2.25 -8.91,0 -15.93,3.96 -7.02,3.87 -9.45,12.42 l 1.98,-8.82 v 68.04 z m 182.3801,1.8 q -8.19,0 -14.31,-3.33 -6.12,-3.33 -9.54,-9.09 -3.33,-5.76 -3.33,-13.14 0,-7.47 3.24,-12.78 3.33,-5.4 8.82,-8.91 5.58,-3.6 12.42,-5.67 6.84,-2.16 14.13,-3.06 7.38,-0.99 14.13,-1.08 0,-12.6 -4.95,-16.47 -4.95,-3.87 -14.31,-3.87 -4.95,0 -10.62,1.53 -5.58,1.53 -12.6,6.39 l -2.34,-13.14 q 5.31,-4.05 13.23,-6.57 7.92,-2.61 16.65,-2.61 11.16,0 18,3.96 6.84,3.87 9.99,13.14 3.15,9.27 3.15,25.2 v 18 q 0,6.3 0.54,10.44 0.63,4.05 2.7,6.12 2.16,1.98 6.84,1.98 h 1.62 l -2.52,12.96 h -1.26 q -7.83,0 -12.15,-1.53 -4.23,-1.53 -6.48,-4.41 -2.25,-2.88 -4.05,-7.02 -4.95,5.76 -11.7,9.36 -6.75,3.6 -15.3,3.6 z m 3.06,-12.96 q 6.48,0 12.51,-3.24 6.12,-3.24 9.99,-8.64 V 400 q -12.87,0.45 -20.88,2.52 -7.92,2.07 -11.61,6.21 -3.69,4.14 -3.69,10.71 0,7.11 3.78,10.35 3.87,3.15 9.9,3.15 z m 66.8199,11.16 v -88.2 h 12.6 l 3.24,16.92 -6.3,-2.7 q 8.91,-9.9 17.37,-12.96 8.55,-3.06 16.65,-3.06 19.35,0 27.63,11.16 8.37,11.16 8.37,30.24 v 48.6 h -16.2 v -48.6 q 0,-14.04 -5.22,-20.52 -5.22,-6.48 -17.82,-6.48 -8.91,0 -16.38,3.96 -7.38,3.87 -9.72,12.42 l 1.98,-9.9 v 69.12 z"
    id="text-human"
    style="font-size:180px;font-family:Cabin, Lato, 'Gill Sans', 'Segoe UI', Calibri, sans-serif;letter-spacing:4;dominant-baseline:middle;"
    aria-label="human" />

<!--
  <text x="840" y="400" text-anchor="start" dominant-baseline="middle"
    font-family="Cabin, Lato, Gill Sans, Segoe UI, Calibri, sans-serif"
    font-size="180" fill="#0b2b6a" letter-spacing="4">
    human
  </text>
-->
</svg>